<svg viewBox="0 0 1000 1004.1441" xmlns="http://www.w3.org/2000/svg"><path d="M988 276.144l-42-111c-9-24-32-40-58-40H697c-21 0-40 10-51 26-12-16-30-26-51-26H405c-21 0-39 10-51 26-11-16-30-26-51-26H112c-26 0-49 16-58 40l-45 120c-6 16-9 32-9 49v478c0 35 28 63 63 63h875c34 0 62-28 62-63v-500c0-13-5-26-12-36zm-291-109h191c9 0 16 5 20 13l26 70H682l-14-42 9-27c3-9 11-14 20-14zm-292 0h190c9 0 17 5 20 14l23 69H390l-14-42 9-27c3-9 11-14 20-14zm553 645c0 12-9 21-20 21H63c-12 0-21-9-21-21v-478c0-12 2-23 6-34l45-120c3-8 10-13 19-13h191c9 0 17 5 20 14l32 96c3 9 11 15 20 15h563c5 0 10 2 13 5l1 3c1 2 3 4 5 6 1 2 1 4 1 6v500z"/></svg>