<?xml version="1.0" encoding="UTF-8"?>
<svg width="500" height="500" version="1.1" viewBox="0 0 500.00001 500.00001" xmlns="http://www.w3.org/2000/svg">
 <g transform="translate(0 -552.36)">
  <circle cx="250" cy="802.36" r="197.57" fill="none" stroke="#555" stroke-width="25"/>
  <rect transform="matrix(.86603 .5 -.5 .86603 0 0)" x="420.13" y="563.55" width="59.852" height="16.38" ry="0" fill="#555"/>
  <rect transform="matrix(-.5 -.86603 .86603 -.5 0 0)" x="-682.17" y="-195.36" width="59.852" height="16.38" ry="0" fill="#555"/>
  <rect transform="rotate(90)" x="604.81" y="-255.74" width="59.852" height="16.38" ry="0" fill="#555"/>
  <rect x="387.71" y="794.92" width="59.852" height="16.38" ry="0" fill="#555"/>
  <rect x="52.435" y="794.92" width="59.852" height="16.38" ry="0" fill="#555"/>
  <rect transform="matrix(.86603 -.5 .5 .86603 0 0)" x="-382.24" y="811.1" width="59.852" height="16.38" ry="0" fill="#555"/>
  <rect transform="matrix(-.86603 .5 .5 .86603 0 0)" x="-10.765" y="809.87" width="59.852" height="16.38" ry="0" fill="#555"/>
  <rect transform="matrix(.5 -.86603 -.86603 -.5 0 0)" x="-432.16" y="-624.13" width="59.852" height="16.38" ry="0" fill="#555"/>
  <rect transform="matrix(-.86603 -.5 -.5 .86603 0 0)" x="-811" y="561.09" width="59.852" height="16.38" ry="0" fill="#555"/>
  <circle cx="247.55" cy="826.64" r="15.625" fill="#555"/>
  <path d="m248.74 834.6 166.64 11.281-164.73-28.325c-11.591-3.4984-13.731 15.63-1.9069 17.044z" color="#000000" color-rendering="auto" fill="#555" fill-rule="evenodd" image-rendering="auto" shape-rendering="auto" solid-color="#000000" style="block-progression:tb;isolation:auto;mix-blend-mode:normal;text-decoration-color:#000000;text-decoration-line:none;text-decoration-style:solid;text-indent:0;text-transform:none;white-space:normal"/>
 </g>
</svg>
